<svg xmlns="http://www.w3.org/2000/svg" width="40" height="40" viewBox="0 0 40 40">
    <g fill="none" fill-rule="nonzero">
        <circle cx="20" cy="20" r="20" fill="#00D170"/>
        <path fill="none" d="M8 8h24v24H8z"/>
        <path fill="#FFF" d="M27.994 27.117v-2.74a.908.908 0 0 0-.774-.922 12.522 12.522 0 0 1-2.741-.683.908.908 0 0 0-.956.2l-1.15 1.15a.9.9 0 0 1-1.08.146 15.376 15.376 0 0 1-5.767-5.766.9.9 0 0 1 .146-1.082l1.146-1.145a.91.91 0 0 0 .204-.962 12.497 12.497 0 0 1-.682-2.73.912.912 0 0 0-.918-.783H12.71a.91.91 0 0 0-.907.977 17.014 17.014 0 0 0 2.643 7.457 16.753 16.753 0 0 0 5.158 5.156 16.99 16.99 0 0 0 7.4 2.637.91.91 0 0 0 .991-.91zm.922 2a2.718 2.718 0 0 1-2.092.7 18.796 18.796 0 0 1-8.193-2.912 18.534 18.534 0 0 1-5.701-5.699 18.818 18.818 0 0 1-2.919-8.253A2.71 2.71 0 0 1 12.708 10h2.705a2.712 2.712 0 0 1 2.71 2.339c.107.8.303 1.588.584 2.343.373.99.135 2.106-.613 2.862l-.651.652a13.576 13.576 0 0 0 4.156 4.155l.655-.655a2.709 2.709 0 0 1 2.856-.61c.757.283 1.544.479 2.354.585a2.704 2.704 0 0 1 2.33 2.728v2.713a2.71 2.71 0 0 1-.878 2.005zM21.462 15.35a.75.75 0 0 1 .288-1.472 5.274 5.274 0 0 1 4.166 4.167.75.75 0 0 1-1.472.287 3.774 3.774 0 0 0-2.982-2.982zm.061-3.61a.75.75 0 0 1 .166-1.49 8.893 8.893 0 0 1 7.855 7.845.75.75 0 0 1-1.49.168 7.393 7.393 0 0 0-6.53-6.522z"/>
    </g>
</svg>
